<svg width="160" height="62" viewBox="0 0 160 62" fill="none" xmlns="http://www.w3.org/2000/svg">
<g clip-path="url(#clip0_6041_9271)">
<path d="M101.326 2.96063V16.5328C101.326 21.0376 102.818 23.559 107.034 25.8768C111.251 28.1946 120.817 32.606 124.512 37.3155C126.769 40.192 128.107 48.958 121.835 53.2533L110.85 59.6218" stroke="url(#paint0_linear_6041_9271)" stroke-width="3.43979" stroke-miterlimit="10"/>
<path d="M110.851 59.6208C110.479 59.8358 110.018 59.5639 110.018 59.1292V44.7969C110.018 37.7127 116.544 36.8957 121.32 33.2228C126.095 29.5498 126.698 25.9633 126.139 20.8032C125.579 15.6431 122.18 13.9374 118.222 11.532C114.933 9.53285 105.442 4.13036 102.329 2.36328C101.881 2.10841 101.328 2.43838 101.328 2.96065" stroke="url(#paint1_linear_6041_9271)" stroke-width="3.43979" stroke-miterlimit="10"/>
<path d="M158.3 2.96063V16.5328C158.3 21.0376 156.808 23.559 152.593 25.8768C148.376 28.1946 138.809 32.606 135.114 37.3155C132.858 40.192 131.519 48.958 137.792 53.2533L148.777 59.6218" stroke="url(#paint2_linear_6041_9271)" stroke-width="3.43979" stroke-miterlimit="10"/>
<path d="M148.777 59.6208C149.148 59.8358 149.609 59.5639 149.609 59.1292V44.7969C149.609 37.7127 143.084 36.8957 138.307 33.2228C133.532 29.5498 132.929 25.9633 133.489 20.8032C134.048 15.6431 137.448 13.9374 141.405 11.532C144.695 9.53285 154.185 4.13036 157.298 2.36328C157.746 2.10841 158.299 2.43838 158.299 2.96065" stroke="url(#paint3_linear_6041_9271)" stroke-width="3.43979" stroke-miterlimit="10"/>
<path d="M40.9256 23.8173C37.6839 23.8173 35.056 21.1775 35.056 17.921C35.056 14.6645 37.6839 12.0247 40.9256 12.0247C44.1674 12.0247 46.7952 14.6645 46.7952 17.921C46.7952 19.4844 46.1768 20.9852 45.0769 22.0901C43.976 23.1961 42.4819 23.8162 40.9268 23.8162M40.9268 7.90912C36.9148 7.90912 33.2958 10.3373 31.7622 14.0614C30.2274 17.7879 31.078 22.073 33.9177 24.9222C36.7551 27.7713 41.023 28.6213 44.7303 27.075C48.4353 25.5286 50.8491 21.8932 50.8446 17.8607C50.8389 12.3626 46.3999 7.90912 40.9256 7.90912" fill="white"/>
<path d="M62.5127 23.8174C59.2709 23.8174 56.6431 21.1776 56.6431 17.921C56.6431 14.6645 59.2709 12.0247 62.5127 12.0247C65.7544 12.0247 68.3823 14.6645 68.3823 17.921C68.3823 21.1776 65.7544 23.8174 62.5127 23.8174ZM62.5127 7.91029C58.4985 7.9046 54.8773 10.3305 53.3402 14.0546C51.8009 17.7811 52.6493 22.0685 55.4878 24.9188C58.3252 27.7714 62.5954 28.6225 66.3027 27.0784C70.0099 25.5321 72.4248 21.8944 72.4192 17.8619C72.4067 12.3718 67.9802 7.9228 62.5127 7.91029Z" fill="white"/>
<path d="M84.0885 23.8162C81.7143 23.8162 79.5736 22.3791 78.664 20.1763C77.7556 17.9734 78.2585 15.4371 79.9372 13.7508C81.6147 12.0657 84.1394 11.5605 86.3323 12.473C88.5252 13.3856 89.9569 15.535 89.9569 17.9199C89.9569 21.1764 87.3268 23.8162 84.0873 23.8162M93.0322 0.0443581L90.308 1.61345C90.1098 1.73178 89.9886 1.94684 89.9932 2.17896V9.90265C87.9283 8.33925 85.3356 7.65199 82.7745 7.99221C77.6219 8.70905 73.8965 13.3003 74.2363 18.5127C74.5739 23.7252 78.8645 27.7896 84.0647 27.8271C86.1828 27.8146 88.242 27.1171 89.9343 25.8336V26.695C89.9343 27.0534 90.2231 27.3424 90.581 27.3424H93.2802C93.449 27.3424 93.6144 27.2741 93.7356 27.1535C93.8568 27.0318 93.9247 26.8657 93.9247 26.6938V0.611005C93.9077 0.401642 93.7945 0.213897 93.62 0.10125C93.4445 -0.0102585 93.2259 -0.0307397 93.0322 0.0432202" fill="white"/>
<path d="M45.1269 34.6189H47.8261C48.1829 34.6189 48.4706 34.909 48.4706 35.2663V52.9439C48.4706 53.3023 48.1818 53.5913 47.8261 53.5913H45.1269C44.7701 53.5913 44.4824 53.3012 44.4824 52.9439V35.2663C44.4824 34.9079 44.7713 34.6189 45.1269 34.6189Z" fill="white"/>
<path d="M30.5362 8.42797H27.6592C27.3896 8.43252 27.1506 8.59979 27.0486 8.85239L22.4714 21.5177L17.8818 8.81712C17.781 8.56451 17.542 8.39725 17.2701 8.3927H13.9253C13.6569 8.3927 13.4167 8.56224 13.3272 8.81712L8.71268 21.4802L4.12529 8.81712C4.02448 8.57703 3.78775 8.42115 3.5261 8.42797H0.650203C0.438391 8.4257 0.24017 8.52924 0.116707 8.70333C-0.00449044 8.87742 -0.0339403 9.10044 0.0408171 9.29956L6.43711 26.9873C6.53565 27.2399 6.77691 27.4072 7.04763 27.414H10.3947C10.6632 27.4095 10.8999 27.2399 10.9928 26.9873L15.5949 14.3118L20.1845 26.9873C20.2831 27.2399 20.5243 27.4072 20.7951 27.414H24.1422C24.4117 27.4083 24.653 27.2399 24.7527 26.9873L31.1376 9.29956C31.2158 9.10271 31.1909 8.8797 31.0719 8.70333C30.9519 8.52697 30.7525 8.42342 30.5407 8.42797" fill="white"/>
<path d="M63.3809 34.2058C60.9841 33.9885 58.593 34.6701 56.6663 36.1152V35.2663C56.6663 34.9079 56.3775 34.6189 56.0218 34.6189H53.3226C52.9635 34.6189 52.6758 34.909 52.6758 35.2663V52.9541C52.6736 53.1282 52.7393 53.2955 52.8616 53.4218C52.9828 53.5458 53.1482 53.6163 53.3237 53.6163H56.0229C56.3797 53.6084 56.6674 53.3137 56.6674 52.9541V44.2303C56.6301 41.1604 58.9113 38.5604 61.9491 38.2145C63.5983 38.0609 65.2317 38.6139 66.4516 39.7381C67.6737 40.86 68.3658 42.4495 68.3579 44.1108V53.0019C68.3556 53.176 68.4213 53.3433 68.5437 53.4673C68.6649 53.5913 68.8302 53.6619 69.0035 53.6619H71.7027C72.0618 53.6562 72.3495 53.3615 72.3495 53.0019V44.3008C72.3948 39.1168 68.5119 34.7463 63.3809 34.207" fill="white"/>
<path d="M40.0559 34.6541H37.1811C36.9093 34.6519 36.6635 34.8214 36.5695 35.0786L31.9923 47.7314L27.4026 35.0786C27.3075 34.8214 27.0651 34.6519 26.7921 34.6541H23.3975C23.129 34.6519 22.8889 34.8237 22.7994 35.0786L18.2324 47.7416L13.6428 35.0786C13.5567 34.8214 13.3154 34.6496 13.0447 34.6541H10.1677C9.95586 34.6519 9.75764 34.7554 9.63644 34.9295C9.51298 35.1036 9.48353 35.3266 9.55828 35.5257L15.9546 53.2135C16.0474 53.4718 16.291 53.6459 16.5651 53.6505H19.8771C20.1466 53.6459 20.3856 53.473 20.4751 53.2135L25.1123 40.5027L29.702 53.1657C29.7949 53.424 30.0384 53.5981 30.3125 53.6027H33.6596C33.9337 53.5981 34.1772 53.4252 34.2701 53.1657L40.6664 35.4779C40.7219 35.2856 40.6834 35.0763 40.5633 34.9147C40.4433 34.7531 40.2564 34.6576 40.0559 34.6541Z" fill="white"/>
<path d="M84.0878 50.0776C81.7137 50.0776 79.5729 48.6405 78.6634 46.4377C77.7561 44.2348 78.2579 41.6974 79.9365 40.0123C81.614 38.3271 84.1388 37.8219 86.3317 38.7345C88.5268 39.647 89.9563 41.7964 89.9563 44.1813C89.9234 47.4253 87.3149 50.0458 84.0867 50.0776M94.0056 35.3027C94.0056 34.9443 93.7145 34.6553 93.3589 34.6553H90.6597C90.4886 34.6507 90.3221 34.7179 90.1998 34.8396C90.0786 34.9637 90.0107 35.1321 90.0141 35.3039V36.1527C85.9217 33.0703 80.1676 33.6187 76.7254 37.4191C73.2843 41.2195 73.2843 47.0271 76.7254 50.8275C80.1665 54.6302 85.9205 55.1775 90.0141 52.0939C89.9835 55.3379 87.3738 57.9583 84.1445 57.9902H77.7935C77.4367 57.9902 77.149 58.2804 77.149 58.6376V61.3491C77.149 61.7075 77.4378 61.9988 77.7935 61.9988H84.0867C89.5519 61.9931 93.9864 57.5476 94.0056 52.0575V35.3016V35.3027Z" fill="white"/>
</g>
<defs>
<linearGradient id="paint0_linear_6041_9271" x1="121.423" y1="58.2985" x2="105.035" y2="1.40255" gradientUnits="userSpaceOnUse">
<stop offset="0.05" stop-color="#E63339"/>
<stop offset="0.31" stop-color="#ED6C24"/>
<stop offset="0.39" stop-color="#8A3F1E"/>
<stop offset="0.51" stop-color="#EF7E22"/>
<stop offset="0.93" stop-color="#F6B019"/>
</linearGradient>
<linearGradient id="paint1_linear_6041_9271" x1="113.818" y1="61.4027" x2="113.818" y2="0.567764" gradientUnits="userSpaceOnUse">
<stop offset="0.06" stop-color="#E63339"/>
<stop offset="0.9" stop-color="#F6B019"/>
</linearGradient>
<linearGradient id="paint2_linear_6041_9271" x1="138.202" y1="58.2985" x2="154.591" y2="1.40255" gradientUnits="userSpaceOnUse">
<stop offset="0.1" stop-color="#058596"/>
<stop offset="0.3" stop-color="#27949D"/>
<stop offset="0.39" stop-color="#07626B"/>
<stop offset="0.53" stop-color="#52A9AF"/>
<stop offset="0.95" stop-color="#7AC5B5"/>
</linearGradient>
<linearGradient id="paint3_linear_6041_9271" x1="145.809" y1="61.4027" x2="145.809" y2="0.567764" gradientUnits="userSpaceOnUse">
<stop offset="0.08" stop-color="#058596"/>
<stop offset="0.93" stop-color="#7AC5B5"/>
</linearGradient>
<clipPath id="clip0_6041_9271">
<rect width="160" height="62" fill="white"/>
</clipPath>
</defs>
</svg>
